<svg xmlns="http://www.w3.org/2000/svg" viewBox="0 0 1448.313 940.65">
  <defs>
    <style>
      .cls-1 {
        fill: #fff;
      }

      .cls-2, .cls-4 {
        fill: none;
        stroke-miterlimit: 10;
      }

      .cls-2 {
        stroke: #fff;
        stroke-width: 40px;
      }

      .cls-3 {
        fill: #1a1818;
      }

      .cls-4 {
        stroke: #1a1818;
        stroke-width: 20px;
      }
    </style>
  </defs>
  <title>Community-Black_1</title>
  <g id="Content_1" data-name="Content 1">
    <path class="cls-1" d="M1495.766,470.642" transform="translate(-47.453 -45.98)"/>
    <path class="cls-1" d="M519.514,973.28c-36.569,3.544-28.717,7.174-60.336-11.562-21.615-12.808-36.142-8.186-43.064,16.668-.786,2.82-2.557,5.4-3.109,8.245" transform="translate(-47.453 -45.98)"/>
    <path class="cls-2" d="M916.888,723.51" transform="translate(-47.453 -45.98)"/>
    <path class="cls-2" d="M104.89,723.51" transform="translate(-47.453 -45.98)"/>
    <path class="cls-3" d="M851.669,810.882a84.141,84.141,0,0,1-.838-12.543q-.076-95.9.008-191.8a3.541,3.541,0,0,0-2.185-3.65q-54.637-29.35-109.212-58.817c-.8-.432-1.61-.847-2.706-1.422v2.684q0,27.7-.022,55.4a58.389,58.389,0,0,1-.486,6.972c-.673,5.479-3.679,9.62-7.357,13.6-12.168,13.171-24.117,26.543-36.149,39.839-9.3,10.281-18.483,20.678-27.946,30.81-8.265,8.848-18.41,13.143-30.484,9.775-11.927-3.326-19.568-11.414-22.407-23.506-2.36-10.051.789-18.873,7.521-26.4,13.33-14.908,26.79-29.7,40.2-44.537,5.452-6.034,10.882-12.089,16.388-18.075a4.806,4.806,0,0,0,1.317-3.569c-.031-38.6.128-77.2-.1-115.8-.088-14.754,5.017-27.23,14.7-37.969,11.492-12.746,25.65-20.86,42.763-23.374a47.665,47.665,0,0,1,30.231,4.984q75.807,40.8,151.543,81.739c16,8.679,24.933,22.644,27.9,40.443A77.948,77.948,0,0,1,945.3,548.4c.054,83.732,0-5.988.031,77.745,0,9.945-53.343,139.87-58.106,148.7" transform="translate(-47.453 -45.98)"/>
    <path class="cls-3" d="M817.639,850.921c-78,80.07-297.355,122.418-298.126,122.359-174.949-13.5-272.7-89.91-310.767-122.521,1.268,0,65.207,1.195,66.344.629q34.419-17.122,68.788-34.347c6.125-3.062,11.4-1.911,15.917,3.165q28.033,31.538,56.164,62.989,21.238,23.8,42.469,47.6a4.037,4.037,0,0,0,3.391,1.571c6.589-.089,13.18-.039,20.121-.039L449.3,852.4h50.6V821.263c-4.748-.736-9.5-1.28-14.172-2.236-11.511-2.357-22.21-6.61-31.176-14.458-10.025-8.775-15.377-20.239-18.5-32.9a98.123,98.123,0,0,1-2.81-25.806c2.576,0,5.075-.115,7.562.02a89.776,89.776,0,0,1,32.5,7.5,53.4,53.4,0,0,1,25.812,23.814c.179.333.379.656.776,1.341V687.837c-3.821-.525-7.653-.938-11.443-1.6a78.056,78.056,0,0,1-24.1-8.168c-14.212-7.718-22.48-20.019-27.053-35.132a97.5,97.5,0,0,1-4.082-28.578c0-.584.068-1.168.1-1.7,3.29,0,6.478-.189,9.637.034A86.422,86.422,0,0,1,474.72,620.7a52.8,52.8,0,0,1,24.173,22.778,2.864,2.864,0,0,0,1.122,1.217v-2.085c0-36.466.11-72.933-.067-109.4-.054-11.055,9.737-15.428,17.738-12.937,5.51,1.716,8.714,6.159,8.719,12.227q.026,28.4.007,56.8v2.607c.451-.643.613-.826.723-1.036,7.388-14.117,19.312-22.587,34.173-27.338a96.219,96.219,0,0,1,30.112-4.482c.52,0,1.039.055,1.917.1-.176,3.732-.231,7.375-.54,11a87.3,87.3,0,0,1-7.718,30.012c-7.574,16.125-20.587,25.684-37.348,30.381-6.827,1.913-13.912,2.909-21.151,4.377V724.79c.182-.173.394-.295.49-.478,7.611-14.523,19.923-23.059,35.27-27.756a100.873,100.873,0,0,1,28.76-4.215c.592-.006,1.184.054,1.847.086a2.918,2.918,0,0,1,.238.763c.108,14.655-2.322,28.782-8.954,41.99-7.571,15.078-20.151,24.045-36.009,28.538-6.493,1.84-13.3,2.563-19.97,3.788-.516.095-1.043.136-1.7.218v84.568h50.6l-32.631,79.919c.818.049,1.388.113,1.957.113,6.133.007,12.267.053,18.4-.047a4.087,4.087,0,0,0,2.705-1.145Q616.34,876.672,665,822.127a30.682,30.682,0,0,1,3.621-3.978,11.8,11.8,0,0,1,13.459-1.374c21.365,10.707,42.8,21.28,64.077,32.156a31.07,31.07,0,0,0,14.828,3.482" transform="translate(-47.453 -45.98)"/>
    <path class="cls-3" d="M175.532,825.119C123.062,759.348,86,655.155,86,650.784c-.07-84.265,0-18.859.011-103.125,0-14.116,3.513-27.145,12.32-38.451a52.637,52.637,0,0,1,16.7-14.079q75.675-40.839,151.39-81.6c12.405-6.67,25.551-7.173,38.8-3.21,19.757,5.909,34.837,17.762,44.15,36.407a45.482,45.482,0,0,1,4.676,20.658q-.058,59-.054,118a5.532,5.532,0,0,0,1.582,4.058q27.813,30.662,55.554,61.388c5.764,6.364,9.493,13.6,8.979,22.368-.749,12.77-7.363,21.846-18.832,27.032-11.254,5.089-21.723,2.718-31.151-4.9a36.374,36.374,0,0,1-4.029-3.875c-21.135-23.309-42.1-46.775-63.465-69.871a28.871,28.871,0,0,1-8.007-20.955c.1-18.4.032-36.8.032-55.2v-2.739c-.935.465-1.622.783-2.287,1.141Q237.5,573.4,182.629,602.937a3.414,3.414,0,0,0-2.126,3.513q.082,95.8.07,191.6c.007,9.368-1.032,18.516-5.041,27.073" transform="translate(-47.453 -45.98)"/>
    <path class="cls-1" d="M992.406,852.324" transform="translate(-47.453 -45.98)"/>
    <path class="cls-3" d="M418.014,336.667c4.037.772,8.144,1.287,12.1,2.357a63.951,63.951,0,0,1,46.779,54.539c3.844,33.508-19.666,64.485-53.112,69.98A63.82,63.82,0,1,1,404.325,337.4c1.5-.212,2.993-.488,4.489-.733Z" transform="translate(-47.453 -45.98)"/>
    <path class="cls-3" d="M622.414,336.667c3.589.647,7.225,1.1,10.76,1.971A63.808,63.808,0,1,1,554.9,411.03c-5.8-33.95,17.433-67.025,51.434-73.212,2.416-.44,4.851-.77,7.278-1.151Z" transform="translate(-47.453 -45.98)"/>
  </g>
  <g id="Content_2" data-name="Content 2">
    <circle class="cls-4" cx="465.761" cy="465.761" r="455.761"/>
  </g>
</svg>
