<svg xmlns="http://www.w3.org/2000/svg" viewBox="0 0 931.522 931.522">
  <defs>
    <style>
      .cls-1 {
        fill: #1a1818;
      }

      .cls-2 {
        fill: none;
        stroke: #1a1818;
        stroke-miterlimit: 10;
        stroke-width: 20px;
      }
    </style>
  </defs>
  <title>Events-Black</title>
  <g id="Content_1" data-name="Content 1">
    <path class="cls-1" d="M416.834,952.336c.5-192.222,13.906-381.267-164.714-388.1h0c-128.195,0-140.671,95.893-142.469,146.558L99.175,686.057C165.626,855.664,310.8,952.336,416.834,952.336" transform="translate(-47.453 -45.98)"/>
    <rect class="cls-1" x="165.626" y="329.613" width="199.68" height="199.68" rx="99.84" ry="99.84" transform="translate(-211.439 648.939) rotate(-90)"/>
    <path class="cls-1" d="M608.757,952.336c-.5-192.222-13.906-381.267,164.714-388.1h0c128.195,0,140.671,95.893,142.469,146.558l10.476-24.734C859.965,855.664,714.8,952.336,608.757,952.336" transform="translate(-47.453 -45.98)"/>
    <rect class="cls-1" x="660.285" y="329.613" width="199.68" height="199.68" rx="99.84" ry="99.84" transform="translate(283.219 1143.598) rotate(-90)"/>
    <path class="cls-1" d="M422.455,358.027l42.152-.011a6.862,6.862,0,0,1,6.864,6.862v35.739a6.862,6.862,0,0,0,10.74,5.662l68.747-47.085a6.862,6.862,0,0,1,3.876-1.2l46.657-.014a6.862,6.862,0,0,0,6.86-6.862V228.675a6.862,6.862,0,0,0-6.856-6.862l-179.035-.173a6.862,6.862,0,0,0-6.869,6.862V351.164A6.862,6.862,0,0,0,422.455,358.027Z" transform="translate(-47.453 -45.98)"/>
  </g>
  <g id="Content_2" data-name="Content 2">
    <circle class="cls-2" cx="465.761" cy="465.761" r="455.761"/>
  </g>
</svg>
