<svg xmlns="http://www.w3.org/2000/svg" viewBox="0 0 1448.313 940.65">
  <defs>
    <style>
      .cls-1 {
        fill: #1a1818;
      }

      .cls-2 {
        fill: #fff;
      }

      .cls-3 {
        fill: none;
        stroke: #1a1818;
        stroke-miterlimit: 10;
        stroke-width: 20px;
      }
    </style>
  </defs>
  <title>Pursuing-Interests-Black</title>
  <g id="Content_1" data-name="Content 1">
    <path class="cls-1" d="M519.514,967.5c-98.041-11.557-215.542-32.488-212-57.025,13.611-94.219,32.362-148.566,57.291-240.783,4.205-15.555,7.964-24.33-4.947-22.268C331.209,652,309.914,660.09,304.291,687.6c-6.438,31.494-4.555,64.514-4.62,96.828-.072,35.626-6.388,66.3-49.482,69.389-33.434,2.4-49.114-20.42-48.913-67.776.213-50.035-.631-50.054.324-100.077.921-48.239,17.184-78.994,63.139-103.983,71.805-39.045,145.873-76.023,238.245-52.912,37.079,9.277,83,28.015,106.11,57.3,44.818,56.811,31.167,54.953,56.58,94.52,14.293,22.253,36.114,37.669,58.538,25.693,27.2-14.527,55.593-26.923,83.9-39.263,29.46-12.844,56.471-9.151,71.514,21.452,15.339,31.2.249,54.626-28.155,68.721-50.05,24.836-100.98,47.893-151.449,71.89-30,14.262-51.373,1.37-68.028-22.479-20.9-29.932-40.452-60.807-67.818-102.219-12.705,50.585-22.082,88.861-31.985,127-6.179,23.8,3.588,38.748,23.635,50.949,42.715,26,53.84,32.535,95.655,59.961" transform="translate(-47.453 -45.98)"/>
    <path class="cls-2" d="M1495.766,470.642" transform="translate(-47.453 -45.98)"/>
    <path class="cls-2" d="M519.514,973.28c-36.569,3.544-28.717,7.174-60.336-11.562-21.615-12.808-36.142-8.186-43.064,16.668-.786,2.82-2.557,5.4-3.109,8.245" transform="translate(-47.453 -45.98)"/>
    <rect class="cls-1" x="457.754" y="310.615" width="199.68" height="199.68" rx="99.84" ry="99.84" transform="translate(99.685 922.07) rotate(-90)"/>
  </g>
  <g id="Content_2" data-name="Content 2">
    <circle class="cls-3" cx="465.761" cy="465.761" r="455.761"/>
  </g>
</svg>
