<svg xmlns="http://www.w3.org/2000/svg" viewBox="0 0 931.522 931.522">
  <defs>
    <style>
      .cls-1 {
        fill: none;
        stroke: #1a1818;
        stroke-miterlimit: 10;
        stroke-width: 20px;
      }
    </style>
  </defs>
  <title>Transportation-Black</title>
  <g id="Content_1" data-name="Content 1">
    <path d="M575.384,527.193c17.026,14.447,33.64,28.537,50.247,42.637Q672.946,610,720.243,650.2c7.7,6.549,16.231,10.449,26.53,8.486,11.963-2.281,20.46-9.186,23.613-20.965,3.245-12.12,0-22.755-9.478-31.61q-57.856-54.062-115.434-108.423c-20.768-19.5-40.8-39.89-62.576-58.2-31.527-26.513-67.846-26.386-99.451-.347-14.68,12.095-27.807,26.085-41.532,39.325-28.542,27.536-57.169,54.986-85.472,82.766-31.9,31.313-35.971,67.29-11.572,104.538,35.122,53.617,70.645,106.971,106.022,160.421,21.854,33.018,43.594,66.113,65.7,98.959,12.231,18.171,35.766,21.52,52.681,8.13,13.169-10.425,17.561-30.833,7.268-48.222q-56.7-95.8-112.8-191.955c-5.015-8.547-9.943-17.144-15.757-27.177L533.4,688.106c-6.5,12.685-12.79,24.445-18.471,36.494-1.191,2.526-1.266,6.757.069,9.11,12.45,21.945,25.312,43.656,38.086,65.417.905,1.542,2.066,2.935,3.521,4.978,22.911-39.7,45.4-78.663,67.879-117.635,1.482-2.57,2.975-5.145,4.256-7.817,10.687-22.295.035-47.372-23.575-55.036-14.535-4.718-29.215-8.987-43.828-13.462-18.771-5.748-37.541-11.5-57.527-17.625Z" transform="translate(-47.453 -45.98)"/>
    <path class="cls-1" d="M370.581,938.66a149.846,149.846,0,0,0,26.457-86.092C397.166,769,328.765,699.953,245.1,700.118a151.718,151.718,0,0,0-111.893,48.618" transform="translate(-47.453 -45.98)"/>
    <path class="cls-1" d="M885.15,766.11c-27.865-39.393-73.845-65.163-125.683-64.694-86.37.781-151.44,70.99-151.457,151.528A154.1,154.1,0,0,0,637.6,944.3" transform="translate(-47.453 -45.98)"/>
    <path d="M670.243,312.548c-41.063-.15-73.59,32.171-73.654,73.19-.062,38.985,32.9,72.069,71.336,72.852,36.873.751,75.15-27.315,75.029-73.517C742.838,340.565,705.957,311.611,670.243,312.548Z" transform="translate(-47.453 -45.98)"/>
  </g>
  <g id="Content_2" data-name="Content 2">
    <circle class="cls-1" cx="465.761" cy="465.761" r="455.761"/>
  </g>
</svg>
