<svg xmlns="http://www.w3.org/2000/svg" viewBox="0 0 1382.412 1383.512">
  <defs>
    <style>
      .cls-1, .cls-10, .cls-12, .cls-14, .cls-16, .cls-2, .cls-3, .cls-4, .cls-5, .cls-6, .cls-8 {
        fill: none;
        stroke-miterlimit: 10;
      }

      .cls-1 {
        stroke: #000;
      }

      .cls-1, .cls-5 {
        stroke-width: 2px;
      }

      .cls-2, .cls-3, .cls-4, .cls-5, .cls-6 {
        stroke: #1a1818;
      }

      .cls-2 {
        stroke-width: 0.25px;
      }

      .cls-3 {
        stroke-width: 0.5px;
      }

      .cls-6 {
        stroke-width: 0.1px;
      }

      .cls-7 {
        fill: #1a1818;
      }

      .cls-8 {
        stroke: #8873b2;
      }

      .cls-10, .cls-12, .cls-14, .cls-16, .cls-8 {
        stroke-width: 6px;
      }

      .cls-9 {
        fill: #8873b2;
      }

      .cls-10 {
        stroke: #00a1ed;
      }

      .cls-11 {
        fill: #00a1ed;
      }

      .cls-12 {
        stroke: #e0007a;
      }

      .cls-13 {
        fill: #e0007a;
      }

      .cls-14 {
        stroke: #e50019;
      }

      .cls-15 {
        fill: #e50019;
      }

      .cls-16 {
        stroke: #00973d;
      }

      .cls-17 {
        fill: #00973d;
      }

      .cls-18 {
        fill: #3e4193;
      }
    </style>
  </defs>
  <title>Vectors-Black_1</title>
  <g id="Axis">
    <line class="cls-1" x1="5.418" y1="1.455" x2="5.418" y2="145.455"/>
    <line class="cls-1" x1="149.418" y1="145.454" x2="5.418" y2="145.454"/>
    <line class="cls-1" x1="313.578" y1="1.455" x2="313.578" y2="145.455"/>
    <line class="cls-1" x1="457.578" y1="145.454" x2="313.578" y2="145.454"/>
    <line class="cls-1" x1="621.738" y1="1.455" x2="621.738" y2="145.455"/>
    <line class="cls-1" x1="765.738" y1="145.454" x2="621.738" y2="145.454"/>
    <line class="cls-1" x1="929.898" y1="1.455" x2="929.898" y2="145.455"/>
    <line class="cls-1" x1="1073.898" y1="145.454" x2="929.898" y2="145.454"/>
    <line class="cls-1" x1="1238.058" y1="1.455" x2="1238.058" y2="145.455"/>
    <line class="cls-1" x1="1382.058" y1="145.454" x2="1238.058" y2="145.454"/>
    <line class="cls-1" x1="5.418" y1="309.615" x2="5.418" y2="453.615"/>
    <line class="cls-1" x1="149.418" y1="453.614" x2="5.418" y2="453.614"/>
    <line class="cls-1" x1="313.578" y1="309.615" x2="313.578" y2="453.615"/>
    <line class="cls-1" x1="457.578" y1="453.614" x2="313.578" y2="453.614"/>
    <line class="cls-1" x1="621.738" y1="309.615" x2="621.738" y2="453.615"/>
    <line class="cls-1" x1="765.738" y1="453.614" x2="621.738" y2="453.614"/>
    <line class="cls-1" x1="929.898" y1="309.615" x2="929.898" y2="453.615"/>
    <line class="cls-1" x1="1073.898" y1="453.614" x2="929.898" y2="453.614"/>
    <line class="cls-1" x1="1238.058" y1="309.615" x2="1238.058" y2="453.615"/>
    <line class="cls-1" x1="1382.058" y1="453.614" x2="1238.058" y2="453.614"/>
    <line class="cls-1" x1="5.418" y1="617.775" x2="5.418" y2="761.775"/>
    <line class="cls-1" x1="149.418" y1="761.774" x2="5.418" y2="761.774"/>
    <line class="cls-1" x1="313.578" y1="617.775" x2="313.578" y2="761.775"/>
    <line class="cls-1" x1="457.578" y1="761.774" x2="313.578" y2="761.774"/>
    <line class="cls-1" x1="621.738" y1="617.775" x2="621.738" y2="761.775"/>
    <line class="cls-1" x1="765.738" y1="761.774" x2="621.738" y2="761.774"/>
    <line class="cls-1" x1="929.898" y1="617.775" x2="929.898" y2="761.775"/>
    <line class="cls-1" x1="1073.898" y1="761.774" x2="929.898" y2="761.774"/>
    <line class="cls-1" x1="1238.058" y1="617.775" x2="1238.058" y2="761.775"/>
    <line class="cls-1" x1="1382.058" y1="761.774" x2="1238.058" y2="761.774"/>
    <line class="cls-1" x1="5.418" y1="925.935" x2="5.418" y2="1069.935"/>
    <line class="cls-1" x1="149.418" y1="1069.934" x2="5.418" y2="1069.934"/>
    <line class="cls-1" x1="313.578" y1="925.935" x2="313.578" y2="1069.935"/>
    <line class="cls-1" x1="457.578" y1="1069.934" x2="313.578" y2="1069.934"/>
    <line class="cls-1" x1="621.738" y1="925.935" x2="621.738" y2="1069.935"/>
    <line class="cls-1" x1="765.738" y1="1069.934" x2="621.738" y2="1069.934"/>
    <line class="cls-1" x1="929.898" y1="925.935" x2="929.898" y2="1069.935"/>
    <line class="cls-1" x1="1073.898" y1="1069.934" x2="929.898" y2="1069.934"/>
    <line class="cls-1" x1="1238.058" y1="925.935" x2="1238.058" y2="1069.935"/>
    <line class="cls-1" x1="1382.058" y1="1069.934" x2="1238.058" y2="1069.934"/>
    <line class="cls-1" x1="5.418" y1="1234.095" x2="5.418" y2="1378.095"/>
    <line class="cls-1" x1="149.418" y1="1378.094" x2="5.418" y2="1378.094"/>
    <line class="cls-1" x1="313.578" y1="1234.095" x2="313.578" y2="1378.095"/>
    <line class="cls-1" x1="457.578" y1="1378.094" x2="313.578" y2="1378.094"/>
    <line class="cls-1" x1="621.738" y1="1234.095" x2="621.738" y2="1378.095"/>
    <line class="cls-1" x1="765.738" y1="1378.094" x2="621.738" y2="1378.094"/>
    <line class="cls-1" x1="929.898" y1="1234.095" x2="929.898" y2="1378.095"/>
    <line class="cls-1" x1="1073.898" y1="1378.094" x2="929.898" y2="1378.094"/>
    <line class="cls-1" x1="1238.058" y1="1234.095" x2="1238.058" y2="1378.095"/>
    <line class="cls-1" x1="1382.058" y1="1378.094" x2="1238.058" y2="1378.094"/>
    <line class="cls-2" x1="149.418" y1="1.455" x2="5.418" y2="145.455"/>
    <line class="cls-3" x1="5.418" y1="1.455" x2="149.418" y2="1.455"/>
    <line class="cls-3" x1="149.418" y1="145.454" x2="149.418" y2="1.455"/>
    <line class="cls-2" x1="457.578" y1="1.454" x2="313.578" y2="145.454"/>
    <line class="cls-3" x1="313.578" y1="1.454" x2="457.578" y2="1.454"/>
    <line class="cls-3" x1="457.578" y1="145.452" x2="457.578" y2="1.454"/>
    <line class="cls-4" x1="149.418" y1="1.454" x2="5.418" y2="145.454"/>
    <line class="cls-3" x1="5.418" y1="1.454" x2="149.418" y2="1.454"/>
    <line class="cls-3" x1="149.418" y1="145.452" x2="149.418" y2="1.454"/>
    <line class="cls-4" x1="457.578" y1="1.454" x2="313.578" y2="145.454"/>
    <line class="cls-3" x1="313.578" y1="1.454" x2="457.578" y2="1.454"/>
    <line class="cls-3" x1="457.578" y1="145.452" x2="457.578" y2="1.454"/>
    <line class="cls-4" x1="765.738" y1="1.454" x2="621.738" y2="145.454"/>
    <line class="cls-3" x1="621.738" y1="1.454" x2="765.738" y2="1.454"/>
    <line class="cls-3" x1="765.738" y1="145.452" x2="765.738" y2="1.454"/>
    <line class="cls-4" x1="1073.898" y1="1.454" x2="929.898" y2="145.454"/>
    <line class="cls-3" x1="929.898" y1="1.454" x2="1073.898" y2="1.454"/>
    <line class="cls-3" x1="1073.898" y1="145.452" x2="1073.898" y2="1.454"/>
    <line class="cls-4" x1="1382.058" y1="1.454" x2="1238.058" y2="145.454"/>
    <line class="cls-3" x1="1238.058" y1="1.454" x2="1382.058" y2="1.454"/>
    <line class="cls-3" x1="1382.058" y1="145.452" x2="1382.058" y2="1.454"/>
    <line class="cls-4" x1="149.418" y1="309.614" x2="5.418" y2="453.614"/>
    <line class="cls-3" x1="5.418" y1="309.614" x2="149.418" y2="309.614"/>
    <line class="cls-3" x1="149.418" y1="453.612" x2="149.418" y2="309.614"/>
    <path class="cls-2" d="M380.16,380.159" transform="translate(-66.582 -70.545)"/>
    <line class="cls-4" x1="457.578" y1="309.614" x2="313.578" y2="453.614"/>
    <line class="cls-3" x1="313.578" y1="309.614" x2="457.578" y2="309.614"/>
    <line class="cls-3" x1="457.578" y1="453.612" x2="457.578" y2="309.614"/>
    <line class="cls-4" x1="765.738" y1="309.614" x2="621.738" y2="453.614"/>
    <line class="cls-3" x1="621.738" y1="309.614" x2="765.738" y2="309.614"/>
    <line class="cls-3" x1="765.738" y1="453.612" x2="765.738" y2="309.614"/>
    <path class="cls-2" d="M1099.253,423.244" transform="translate(-66.582 -70.545)"/>
    <path class="cls-2" d="M1140.481,524.158" transform="translate(-66.582 -70.545)"/>
    <path class="cls-5" d="M1080.656,407.272" transform="translate(-66.582 -70.545)"/>
    <path class="cls-5" d="M1098.327,422.309" transform="translate(-66.582 -70.545)"/>
    <line class="cls-4" x1="1073.898" y1="309.614" x2="929.898" y2="453.614"/>
    <line class="cls-3" x1="929.898" y1="309.614" x2="1073.898" y2="309.614"/>
    <line class="cls-3" x1="1073.898" y1="453.612" x2="1073.898" y2="309.614"/>
    <line class="cls-4" x1="1382.058" y1="309.614" x2="1238.058" y2="453.614"/>
    <line class="cls-3" x1="1238.058" y1="309.614" x2="1382.058" y2="309.614"/>
    <line class="cls-3" x1="1382.058" y1="453.612" x2="1382.058" y2="309.614"/>
    <line class="cls-4" x1="149.418" y1="617.774" x2="5.418" y2="761.774"/>
    <line class="cls-3" x1="5.418" y1="617.774" x2="149.418" y2="617.774"/>
    <line class="cls-3" x1="149.418" y1="761.772" x2="149.418" y2="617.774"/>
    <line class="cls-4" x1="457.578" y1="617.774" x2="313.578" y2="761.774"/>
    <line class="cls-3" x1="313.578" y1="617.774" x2="457.578" y2="617.774"/>
    <line class="cls-3" x1="457.578" y1="761.772" x2="457.578" y2="617.774"/>
    <line class="cls-4" x1="765.738" y1="617.774" x2="621.738" y2="761.774"/>
    <line class="cls-3" x1="621.738" y1="617.774" x2="765.738" y2="617.774"/>
    <line class="cls-3" x1="765.738" y1="761.772" x2="765.738" y2="617.774"/>
    <line class="cls-4" x1="1073.898" y1="617.774" x2="929.898" y2="761.774"/>
    <line class="cls-3" x1="929.898" y1="617.774" x2="1073.898" y2="617.774"/>
    <line class="cls-3" x1="1073.898" y1="761.772" x2="1073.898" y2="617.774"/>
    <line class="cls-4" x1="1382.058" y1="617.774" x2="1238.058" y2="761.774"/>
    <line class="cls-3" x1="1238.058" y1="617.774" x2="1382.058" y2="617.774"/>
    <line class="cls-3" x1="1382.058" y1="761.772" x2="1382.058" y2="617.774"/>
    <line class="cls-4" x1="149.418" y1="925.934" x2="5.418" y2="1069.934"/>
    <line class="cls-3" x1="5.418" y1="925.934" x2="149.418" y2="925.934"/>
    <line class="cls-3" x1="149.418" y1="1069.932" x2="149.418" y2="925.934"/>
    <line class="cls-4" x1="457.578" y1="925.934" x2="313.578" y2="1069.934"/>
    <line class="cls-3" x1="313.578" y1="925.934" x2="457.578" y2="925.934"/>
    <line class="cls-3" x1="457.578" y1="1069.932" x2="457.578" y2="925.934"/>
    <line class="cls-4" x1="765.738" y1="925.934" x2="621.738" y2="1069.934"/>
    <line class="cls-3" x1="621.738" y1="925.934" x2="765.738" y2="925.934"/>
    <line class="cls-3" x1="765.738" y1="1069.932" x2="765.738" y2="925.934"/>
    <line class="cls-4" x1="1073.898" y1="925.934" x2="929.898" y2="1069.934"/>
    <line class="cls-3" x1="929.898" y1="925.934" x2="1073.898" y2="925.934"/>
    <line class="cls-3" x1="1073.898" y1="1069.932" x2="1073.898" y2="925.934"/>
    <path class="cls-2" d="M1304.64,996.479" transform="translate(-66.582 -70.545)"/>
    <line class="cls-4" x1="1382.058" y1="925.934" x2="1238.058" y2="1069.934"/>
    <line class="cls-3" x1="1238.058" y1="925.934" x2="1382.058" y2="925.934"/>
    <line class="cls-3" x1="1382.058" y1="1069.932" x2="1382.058" y2="925.934"/>
    <line class="cls-4" x1="149.418" y1="1234.094" x2="5.418" y2="1378.094"/>
    <line class="cls-3" x1="5.418" y1="1234.094" x2="149.418" y2="1234.094"/>
    <line class="cls-3" x1="149.418" y1="1378.092" x2="149.418" y2="1234.094"/>
    <line class="cls-2" x1="457.578" y1="1234.094" x2="313.578" y2="1378.094"/>
    <line class="cls-3" x1="313.578" y1="1234.094" x2="457.578" y2="1234.094"/>
    <line class="cls-3" x1="457.578" y1="1378.092" x2="457.578" y2="1234.094"/>
    <path class="cls-2" d="M688.32,1304.639" transform="translate(-66.582 -70.545)"/>
    <line class="cls-4" x1="765.738" y1="1234.094" x2="621.738" y2="1378.094"/>
    <line class="cls-4" x1="457.577" y1="1234.093" x2="313.577" y2="1378.093"/>
    <line class="cls-3" x1="621.738" y1="1234.094" x2="765.738" y2="1234.094"/>
    <line class="cls-3" x1="765.738" y1="1378.092" x2="765.738" y2="1234.094"/>
    <line class="cls-4" x1="1073.898" y1="1234.094" x2="929.898" y2="1378.094"/>
    <line class="cls-3" x1="929.898" y1="1234.094" x2="1073.898" y2="1234.094"/>
    <line class="cls-3" x1="1073.898" y1="1378.092" x2="1073.898" y2="1234.094"/>
    <path class="cls-2" d="M1304.64,1304.639" transform="translate(-66.582 -70.545)"/>
    <line class="cls-4" x1="1382.058" y1="1234.094" x2="1238.058" y2="1378.094"/>
    <line class="cls-3" x1="1238.058" y1="1234.094" x2="1382.058" y2="1234.094"/>
    <line class="cls-3" x1="1382.058" y1="1378.092" x2="1382.058" y2="1234.094"/>
  </g>
  <g id="Geometry">
    <path class="cls-6" d="M216,216A143.917,143.917,0,0,0,72,72" transform="translate(-66.582 -70.545)"/>
    <line class="cls-6" x1="89.585" y1="1.454" x2="89.585" y2="145.455"/>
    <line class="cls-6" x1="149.418" y1="26.14" x2="5.418" y2="26.14"/>
    <line class="cls-6" x1="365.64" y1="1.452" x2="365.64" y2="145.454"/>
    <line class="cls-6" x1="457.203" y1="73.455" x2="313.203" y2="73.455"/>
    <path class="cls-6" d="M216,216A143.917,143.917,0,0,0,72,72" transform="translate(-66.582 -70.545)"/>
    <path class="cls-6" d="M524.161,216a143.917,143.917,0,0,0-144-144" transform="translate(-66.582 -70.545)"/>
    <path class="cls-6" d="M832.321,216a143.917,143.917,0,0,0-144-144" transform="translate(-66.582 -70.545)"/>
    <path class="cls-6" d="M1140.481,216a143.917,143.917,0,0,0-144-144" transform="translate(-66.582 -70.545)"/>
    <path class="cls-6" d="M1448.641,216a143.917,143.917,0,0,0-144-144" transform="translate(-66.582 -70.545)"/>
    <path class="cls-6" d="M216,524.158a143.917,143.917,0,0,0-144-144" transform="translate(-66.582 -70.545)"/>
    <path class="cls-6" d="M524.161,524.158a143.917,143.917,0,0,0-144-144" transform="translate(-66.582 -70.545)"/>
    <path class="cls-6" d="M832.321,524.158a143.917,143.917,0,0,0-144-144" transform="translate(-66.582 -70.545)"/>
    <path class="cls-6" d="M1140.481,524.158a143.917,143.917,0,0,0-144-144" transform="translate(-66.582 -70.545)"/>
    <path class="cls-6" d="M1448.641,524.158a143.917,143.917,0,0,0-144-144" transform="translate(-66.582 -70.545)"/>
    <path class="cls-6" d="M216,832.318a143.917,143.917,0,0,0-144-144" transform="translate(-66.582 -70.545)"/>
    <path class="cls-6" d="M524.161,832.318a143.917,143.917,0,0,0-144-144" transform="translate(-66.582 -70.545)"/>
    <path class="cls-6" d="M832.321,832.318a143.917,143.917,0,0,0-144-144" transform="translate(-66.582 -70.545)"/>
    <path class="cls-6" d="M1140.481,832.318a143.917,143.917,0,0,0-144-144" transform="translate(-66.582 -70.545)"/>
    <path class="cls-6" d="M1448.641,832.318a143.917,143.917,0,0,0-144-144" transform="translate(-66.582 -70.545)"/>
    <path class="cls-6" d="M216,1140.478a143.917,143.917,0,0,0-144-144" transform="translate(-66.582 -70.545)"/>
    <path class="cls-6" d="M524.161,1140.478a143.917,143.917,0,0,0-144-144" transform="translate(-66.582 -70.545)"/>
    <path class="cls-6" d="M832.321,1140.478a143.917,143.917,0,0,0-144-144" transform="translate(-66.582 -70.545)"/>
    <path class="cls-6" d="M1140.481,1140.478a143.917,143.917,0,0,0-144-144" transform="translate(-66.582 -70.545)"/>
    <path class="cls-6" d="M1448.641,1140.478a143.917,143.917,0,0,0-144-144" transform="translate(-66.582 -70.545)"/>
    <path class="cls-6" d="M216,1448.638a143.917,143.917,0,0,0-144-144" transform="translate(-66.582 -70.545)"/>
    <path class="cls-6" d="M524.161,1448.638a143.917,143.917,0,0,0-144-144" transform="translate(-66.582 -70.545)"/>
    <path class="cls-6" d="M832.321,1448.638a143.917,143.917,0,0,0-144-144" transform="translate(-66.582 -70.545)"/>
    <path class="cls-6" d="M1140.481,1448.638a143.917,143.917,0,0,0-144-144" transform="translate(-66.582 -70.545)"/>
    <path class="cls-6" d="M1448.641,1448.638a143.917,143.917,0,0,0-144-144" transform="translate(-66.582 -70.545)"/>
    <line class="cls-6" x1="653.364" y1="1.454" x2="653.364" y2="145.456"/>
    <line class="cls-6" x1="765.737" y1="73.455" x2="621.737" y2="73.455"/>
    <line class="cls-6" x1="1013.205" y1="1.359" x2="1013.205" y2="145.36"/>
    <line class="cls-6" x1="1073.929" y1="85.795" x2="929.93" y2="85.795"/>
    <line class="cls-6" x1="1311.005" y1="1.452" x2="1311.005" y2="145.454"/>
    <line class="cls-6" x1="1381.641" y1="109.454" x2="1237.641" y2="109.454"/>
    <line class="cls-6" x1="148.668" y1="309.612" x2="148.668" y2="453.614"/>
    <line class="cls-6" x1="148.668" y1="316.529" x2="4.668" y2="316.529"/>
    <line class="cls-6" x1="407.571" y1="309.612" x2="407.571" y2="453.614"/>
    <line class="cls-6" x1="457.578" y1="373.449" x2="313.578" y2="373.449"/>
    <line class="cls-6" x1="758.776" y1="310.363" x2="758.776" y2="454.364"/>
    <line class="cls-6" x1="765.738" y1="336.728" x2="620.988" y2="336.728"/>
    <line class="cls-6" x1="962.111" y1="309.612" x2="962.111" y2="453.614"/>
    <line class="cls-6" x1="1073.148" y1="348.121" x2="929.148" y2="348.121"/>
    <line class="cls-6" x1="1332.052" y1="309.612" x2="1332.052" y2="453.614"/>
    <line class="cls-6" x1="1381.308" y1="373.448" x2="1237.308" y2="373.448"/>
    <line class="cls-6" x1="109.236" y1="617.772" x2="109.236" y2="761.774"/>
    <line class="cls-6" x1="149.418" y1="677.112" x2="4.668" y2="677.112"/>
    <line class="cls-6" x1="369.168" y1="617.771" x2="369.168" y2="761.772"/>
    <line class="cls-6" x1="457.578" y1="689.775" x2="312.828" y2="689.775"/>
    <line class="cls-6" x1="708.361" y1="617.772" x2="708.361" y2="761.774"/>
    <line class="cls-6" x1="990.04" y1="617.772" x2="990.04" y2="761.774"/>
    <line class="cls-6" x1="1073.898" y1="656.39" x2="929.148" y2="656.39"/>
    <line class="cls-6" x1="1332.052" y1="617.772" x2="1332.052" y2="761.774"/>
    <line class="cls-6" x1="1382.058" y1="677.95" x2="1237.308" y2="677.95"/>
    <line class="cls-6" x1="147.168" y1="925.934" x2="147.168" y2="1069.936"/>
    <line class="cls-6" x1="149.418" y1="986.007" x2="4.668" y2="986.007"/>
    <line class="cls-6" x1="360.573" y1="925.936" x2="360.573" y2="1069.938"/>
    <line class="cls-6" x1="457.953" y1="1033.934" x2="313.203" y2="1033.934"/>
    <line class="cls-6" x1="737.759" y1="925.849" x2="737.759" y2="1069.85"/>
    <line class="cls-6" x1="765.738" y1="984.569" x2="622.912" y2="984.569"/>
    <line class="cls-6" x1="1056.437" y1="925.932" x2="1056.437" y2="1069.934"/>
    <line class="cls-6" x1="1073.898" y1="974.334" x2="929.148" y2="974.334"/>
    <line class="cls-6" x1="1342.182" y1="925.932" x2="1342.182" y2="1069.934"/>
    <line class="cls-6" x1="1382.058" y1="990.35" x2="1237.308" y2="990.35"/>
    <line class="cls-6" x1="110.543" y1="1232.342" x2="110.543" y2="1376.344"/>
    <line class="cls-6" x1="149.418" y1="1331.259" x2="4.668" y2="1331.259"/>
    <line class="cls-6" x1="389.161" y1="1234.092" x2="389.161" y2="1378.094"/>
    <line class="cls-6" x1="457.578" y1="1343.923" x2="312.161" y2="1343.923"/>
    <line class="cls-6" x1="715.731" y1="1234.094" x2="715.731" y2="1378.095"/>
    <line class="cls-6" x1="765.738" y1="1368.814" x2="621.738" y2="1368.814"/>
    <line class="cls-6" x1="1035.911" y1="1234.092" x2="1035.911" y2="1378.094"/>
    <line class="cls-6" x1="1073.898" y1="1331.259" x2="930.898" y2="1331.259"/>
    <line class="cls-6" x1="1313.641" y1="1234.092" x2="1313.641" y2="1378.094"/>
    <line class="cls-6" x1="1382.058" y1="1343.924" x2="1238.058" y2="1343.924"/>
  </g>
  <g id="Angles">
    <line class="cls-4" x1="106.997" y1="1.454" x2="5.418" y2="145.455"/>
    <path class="cls-5" d="M173.847,114.149a136.088,136.088,0,0,0-17.67-15.037" transform="translate(-66.582 -70.545)"/>
    <g>
      <line class="cls-4" x1="417.703" y1="1.454" x2="313.578" y2="145.455"/>
      <polygon class="cls-7" points="416.479 1.019 418.754 0 418.499 2.48 416.479 1.019"/>
    </g>
    <path class="cls-5" d="M482.007,114.149a136.088,136.088,0,0,0-17.67-15.037" transform="translate(-66.582 -70.545)"/>
    <line class="cls-4" x1="1382.058" y1="74.387" x2="1238.058" y2="145.455"/>
    <path class="cls-5" d="M1433.82,152.245a144.228,144.228,0,0,0-27.33-38.092" transform="translate(-66.582 -70.545)"/>
    <line class="cls-4" x1="457.578" y1="330.798" x2="313.578" y2="453.615"/>
    <path class="cls-5" d="M489.754,430.694q-3.708-4.345-7.748-8.384" transform="translate(-66.582 -70.545)"/>
    <line class="cls-4" x1="765.738" y1="330.79" x2="621.738" y2="453.615"/>
    <path class="cls-5" d="M797.906,430.684q-3.7-4.338-7.737-8.372" transform="translate(-66.582 -70.545)"/>
    <line class="cls-4" x1="973.87" y1="309.614" x2="929.898" y2="453.615"/>
    <path class="cls-5" d="M1098.327,422.309a138.826,138.826,0,0,0-59.775-35.92" transform="translate(-66.582 -70.545)"/>
    <line class="cls-4" x1="1382.058" y1="330.799" x2="1238.058" y2="453.615"/>
    <path class="cls-5" d="M1414.232,430.691q-3.7-4.341-7.741-8.377" transform="translate(-66.582 -70.545)"/>
    <line class="cls-4" x1="149.418" y1="644.344" x2="5.418" y2="761.775"/>
    <path class="cls-5" d="M183.626,741.288a144.646,144.646,0,0,0-9.777-10.816" transform="translate(-66.582 -70.545)"/>
    <path class="cls-5" d="M482.007,730.469a107.459,107.459,0,0,0-13.821-12.159" transform="translate(-66.582 -70.545)"/>
    <line class="cls-4" x1="709.226" y1="617.774" x2="621.738" y2="761.775"/>
    <path class="cls-5" d="M790.168,730.471a144.431,144.431,0,0,0-27.051-21.26" transform="translate(-66.582 -70.545)"/>
    <line class="cls-4" x1="1012.168" y1="617.617" x2="929.898" y2="761.775"/>
    <path class="cls-5" d="M1098.328,730.471a144.372,144.372,0,0,0-30.449-23.264" transform="translate(-66.582 -70.545)"/>
    <path class="cls-5" d="M790.284,114.267a144.119,144.119,0,0,0-44.03-30.162" transform="translate(-66.582 -70.545)"/>
    <path class="cls-5" d="M1113.589,132.132a144.567,144.567,0,0,0-15.263-17.983" transform="translate(-66.582 -70.545)"/>
    <g>
      <line class="cls-2" x1="397.754" y1="29.042" x2="313.578" y2="145.455"/>
      <polygon class="cls-7" points="397.448 28.933 398.017 28.679 397.953 29.299 397.448 28.933"/>
    </g>
    <line class="cls-4" x1="684.99" y1="1.455" x2="621.738" y2="145.452"/>
    <line class="cls-4" x1="1073.898" y1="42.33" x2="929.898" y2="145.455"/>
    <line class="cls-4" x1="1382.058" y1="632.066" x2="1238.058" y2="761.775"/>
    <path class="cls-5" d="M1411.662,735.921a43.567,43.567,0,0,0-5.174-5.45" transform="translate(-66.582 -70.545)"/>
    <path class="cls-5" d="M195.968,1067.114a144.405,144.405,0,0,0-22.119-28.482" transform="translate(-66.582 -70.545)"/>
    <line class="cls-4" x1="457.578" y1="958.968" x2="313.578" y2="1069.935"/>
    <path class="cls-5" d="M494.257,1052.562a144.616,144.616,0,0,0-12.247-13.929" transform="translate(-66.582 -70.545)"/>
    <line class="cls-4" x1="765.738" y1="963.984" x2="621.738" y2="1069.935"/>
    <path class="cls-5" d="M804.341,1055.114a144.586,144.586,0,0,0-14.172-16.482" transform="translate(-66.582 -70.545)"/>
    <line class="cls-4" x1="1073.898" y1="961.141" x2="929.897" y2="1069.935"/>
    <path class="cls-5" d="M1111.41,1053.653a144.6,144.6,0,0,0-13.08-15.019" transform="translate(-66.582 -70.545)"/>
    <line class="cls-4" x1="1381.859" y1="959.122" x2="1238.058" y2="1069.935"/>
    <path class="cls-5" d="M1418.736,1052.56a144.616,144.616,0,0,0-12.249-13.931" transform="translate(-66.582 -70.545)"/>
    <line class="cls-4" x1="149.418" y1="1313.939" x2="5.417" y2="1378.095"/>
    <path class="cls-5" d="M203.59,1390.018a144.129,144.129,0,0,0-29.741-43.226" transform="translate(-66.582 -70.545)"/>
    <line class="cls-4" x1="457.578" y1="1312.991" x2="313.577" y2="1378.095"/>
    <path class="cls-5" d="M511.428,1389.3a144.143,144.143,0,0,0-29.419-42.508" transform="translate(-66.582 -70.545)"/>
    <line class="cls-4" x1="765.738" y1="1363.876" x2="621.737" y2="1378.095"/>
    <path class="cls-5" d="M831.636,1434.489a143.508,143.508,0,0,0-41.466-87.7" transform="translate(-66.582 -70.545)"/>
    <line class="cls-4" x1="1073.898" y1="1314.475" x2="929.897" y2="1378.095"/>
    <path class="cls-5" d="M1128.251,1390.425a144.121,144.121,0,0,0-29.92-43.632" transform="translate(-66.582 -70.545)"/>
    <line class="cls-4" x1="1382.058" y1="1312.991" x2="1238.057" y2="1378.095"/>
    <path class="cls-5" d="M1435.9,1389.287a144.143,144.143,0,0,0-29.412-42.494" transform="translate(-66.582 -70.545)"/>
    <line class="cls-4" x1="5.418" y1="1069.935" x2="149.418" y2="984.714"/>
    <line class="cls-4" x1="313.578" y1="761.775" x2="424.761" y2="617.771"/>
    <line class="cls-4" x1="5.418" y1="453.615" x2="149.418" y2="316.027"/>
    <path class="cls-5" d="M173.846,114.15A144.556,144.556,0,0,0,155.03,98.295" transform="translate(-66.582 -70.545)"/>
    <path class="cls-5" d="M482.007,114.149a136.088,136.088,0,0,0-17.67-15.037" transform="translate(-66.582 -70.545)"/>
    <path class="cls-5" d="M173.847,422.309a19.011,19.011,0,0,0,2.293,2.349" transform="translate(-66.582 -70.545)"/>
  </g>
  <g id="Vectors">
    <g>
      <line class="cls-8" x1="109.858" y1="1331.564" x2="5.418" y2="1378.095"/>
      <rect class="cls-9" x="175.69" y="1397.234" width="1.5" height="9.75" transform="translate(-621.935 122.631) rotate(-24.015)"/>
    </g>
    <g>
      <line class="cls-8" x1="388.478" y1="1344.232" x2="313.578" y2="1378.095"/>
      <rect class="cls-9" x="454.31" y="1409.902" width="1.5" height="9.75" transform="translate(-609.077 242.616) rotate(-24.332)"/>
    </g>
    <g>
      <line class="cls-8" x1="714.985" y1="1368.888" x2="621.738" y2="1378.095"/>
      <rect class="cls-9" x="780.817" y="1434.558" width="1.5" height="9.75" transform="translate(-204.193 13.187) rotate(-5.637)"/>
    </g>
    <g>
      <line class="cls-8" x1="1035.225" y1="1331.562" x2="929.898" y2="1378.095"/>
      <rect class="cls-9" x="1101.057" y="1397.232" width="1.5" height="9.75" transform="translate(-539.232 494.324) rotate(-23.837)"/>
    </g>
    <g>
      <line class="cls-8" x1="1312.958" y1="1344.232" x2="1238.058" y2="1378.095"/>
      <rect class="cls-9" x="1378.79" y="1409.902" width="1.5" height="9.75" transform="translate(-526.954 623.505) rotate(-24.331)"/>
    </g>
    <g>
      <line class="cls-10" x1="147.845" y1="985.639" x2="5.418" y2="1069.933"/>
      <rect class="cls-11" x="213.677" y="1051.308" width="1.5" height="9.75" transform="translate(-574.593 185.897) rotate(-30.616)"/>
    </g>
    <g>
      <line class="cls-10" x1="359.979" y1="1034.177" x2="313.577" y2="1069.933"/>
      <rect class="cls-11" x="425.811" y="1099.847" width="1.5" height="9.75" transform="translate(-652.188 419.455) rotate(-37.616)"/>
    </g>
    <g>
      <line class="cls-10" x1="737.155" y1="985.016" x2="621.737" y2="1069.935"/>
      <rect class="cls-11" x="802.987" y="1050.685" width="1.5" height="9.75" transform="translate(-535.814 611.181) rotate(-36.347)"/>
    </g>
    <g>
      <line class="cls-10" x1="1055.839" y1="974.786" x2="929.897" y2="1069.932"/>
      <rect class="cls-11" x="1121.671" y="1040.455" width="1.5" height="9.75" transform="matrix(0.798, -0.603, 0.603, 0.798, -469.852, 817.262)"/>
    </g>
    <g>
      <line class="cls-10" x1="1341.587" y1="990.156" x2="1238.058" y2="1069.933"/>
      <rect class="cls-11" x="1407.42" y="1055.825" width="1.5" height="9.75" transform="translate(-421.266 1009.508) rotate(-37.618)"/>
    </g>
    <g>
      <line class="cls-12" x1="89.153" y1="26.753" x2="5.418" y2="145.454"/>
      <rect class="cls-13" x="154.985" y="92.423" width="1.5" height="9.75" transform="translate(-80.125 97.924) rotate(-54.8)"/>
    </g>
    <g>
      <line class="cls-12" x1="365.201" y1="74.062" x2="313.578" y2="145.455"/>
      <rect class="cls-13" x="431.033" y="139.732" width="1.5" height="9.75" transform="translate(-4.987 339.221) rotate(-54.129)"/>
    </g>
    <g>
      <line class="cls-12" x1="653.063" y1="74.14" x2="621.738" y2="145.455"/>
      <rect class="cls-13" x="718.895" y="139.81" width="1.5" height="9.75" transform="translate(231.169 674.831) rotate(-66.286)"/>
    </g>
    <g>
      <line class="cls-12" x1="1012.595" y1="86.231" x2="929.898" y2="145.455"/>
      <rect class="cls-13" x="1078.428" y="151.901" width="1.5" height="9.75" transform="translate(43.935 587.13) rotate(-35.609)"/>
    </g>
    <g>
      <line class="cls-12" x1="1310.333" y1="109.785" x2="1238.058" y2="145.455"/>
      <rect class="cls-13" x="1376.165" y="175.455" width="1.5" height="9.75" transform="translate(-4.203 557.457) rotate(-26.268)"/>
    </g>
    <g>
      <line class="cls-14" x1="148.875" y1="316.547" x2="5.418" y2="453.613"/>
      <rect class="cls-15" x="214.708" y="382.217" width="1.5" height="9.75" transform="translate(-274.316 185.509) rotate(-43.695)"/>
    </g>
    <g>
      <line class="cls-14" x1="407" y1="373.936" x2="313.578" y2="453.615"/>
      <rect class="cls-15" x="472.833" y="439.605" width="1.5" height="9.75" transform="translate(-241.761 343.075) rotate(-40.461)"/>
    </g>
    <g>
      <line class="cls-14" x1="758.206" y1="337.214" x2="621.738" y2="453.615"/>
      <rect class="cls-15" x="824.038" y="402.884" width="1.5" height="9.75" transform="translate(-133.939 562.203) rotate(-40.461)"/>
    </g>
    <g>
      <line class="cls-14" x1="961.892" y1="348.839" x2="929.898" y2="453.615"/>
      <rect class="cls-15" x="1027.724" y="414.509" width="1.5" height="9.75" transform="translate(260.411 1209.981) rotate(-73.018)"/>
    </g>
    <g>
      <line class="cls-14" x1="1331.481" y1="373.935" x2="1238.058" y2="453.615"/>
      <rect class="cls-15" x="1397.314" y="439.605" width="1.5" height="9.75" transform="translate(-20.662 943.016) rotate(-40.462)"/>
    </g>
    <g>
      <line class="cls-16" x1="108.655" y1="677.586" x2="5.418" y2="761.775"/>
      <rect class="cls-17" x="174.487" y="743.256" width="1.5" height="9.75" transform="matrix(0.775, -0.632, 0.632, 0.775, -499.95, 208.536)"/>
    </g>
    <g>
      <line class="cls-16" x1="368.709" y1="690.369" x2="313.578" y2="761.774"/>
      <rect class="cls-17" x="434.542" y="756.039" width="1.5" height="9.75" transform="translate(-499.593 569.874) rotate(-52.327)"/>
    </g>
    <g>
      <line class="cls-16" x1="708.717" y1="618.415" x2="621.947" y2="761.774"/>
      <rect class="cls-17" x="774.549" y="684.085" width="1.5" height="9.75" transform="translate(-282.144 924.926) rotate(-58.814)"/>
    </g>
    <g>
      <line class="cls-16" x1="989.669" y1="657.041" x2="929.898" y2="761.774"/>
      <rect class="cls-17" x="1055.501" y="722.711" width="1.5" height="9.75" transform="translate(-165.763 1213.84) rotate(-60.29)"/>
    </g>
    <g>
      <line class="cls-16" x1="1331.495" y1="677.611" x2="1238.059" y2="761.775"/>
      <rect class="cls-17" x="1397.327" y="743.281" width="1.5" height="9.75" transform="translate(-208.017 1057.427) rotate(-42.011)"/>
    </g>
    <circle class="cls-13" cx="5.417" cy="145.455" r="5.417"/>
    <circle class="cls-13" cx="313.577" cy="145.455" r="5.417"/>
    <circle class="cls-13" cx="621.737" cy="145.455" r="5.417"/>
    <circle class="cls-13" cx="929.897" cy="145.455" r="5.417"/>
    <circle class="cls-13" cx="1238.057" cy="145.455" r="5.417"/>
    <circle class="cls-15" cx="5.417" cy="453.615" r="5.417"/>
    <circle class="cls-15" cx="313.577" cy="453.615" r="5.417"/>
    <circle class="cls-15" cx="621.737" cy="453.615" r="5.417"/>
    <circle class="cls-15" cx="929.897" cy="453.615" r="5.417"/>
    <circle class="cls-15" cx="1238.057" cy="453.615" r="5.417"/>
    <circle class="cls-17" cx="5.417" cy="761.775" r="5.417"/>
    <circle class="cls-17" cx="313.577" cy="761.775" r="5.417"/>
    <circle class="cls-17" cx="621.737" cy="761.775" r="5.417"/>
    <circle class="cls-17" cx="929.897" cy="761.775" r="5.417"/>
    <circle class="cls-17" cx="1238.057" cy="761.775" r="5.417"/>
    <circle class="cls-11" cx="5.417" cy="1069.935" r="5.417"/>
    <circle class="cls-11" cx="313.577" cy="1069.935" r="5.417"/>
    <circle class="cls-11" cx="621.737" cy="1069.935" r="5.417"/>
    <circle class="cls-11" cx="929.897" cy="1069.935" r="5.417"/>
    <circle class="cls-11" cx="1238.057" cy="1069.935" r="5.417"/>
    <circle class="cls-9" cx="5.417" cy="1378.095" r="5.417"/>
    <circle class="cls-9" cx="313.577" cy="1378.095" r="5.417"/>
    <circle class="cls-9" cx="621.737" cy="1378.095" r="5.417"/>
    <circle class="cls-9" cx="929.897" cy="1378.095" r="5.417"/>
    <circle class="cls-18" cx="1238.057" cy="1378.095" r="5.417"/>
  </g>
</svg>
